# xmcd CD database file
#
# Track frame offsets:
#	150
#	35397
#	74880
#	104207
#	138773
#	173437
#	190239
#	213896
#
# Disc length: 3623 seconds
#
# Revision: 0
# Processed by: cddbd v1.5.2PL0 Copyright (c) Steve Scherf et al.
# Submitted via: CDex 1.70beta2
#
DISCID=730e2508
DTITLE=Govinda Express - One World Ticket
DYEAR=1900
DGENRE=New Age
TTITLE0=Om namah shivaya 
TTITLE1=The peace 
TTITLE2=Let me be your flute 
TTITLE3=Singing Buddha 
TTITLE4=Om purnam 
TTITLE5=Radha devi (Invocation) 
TTITLE6=Radha devi (Mahamantra à lo cubano)
TTITLE7=Om bensasatto samaya 
EXTD=
EXTT0=
EXTT1=
EXTT2=
EXTT3=
EXTT4=
EXTT5=
EXTT6=
EXTT7=
PLAYORDER=
